<?xml version="1.0" encoding="utf-8"?>
<svg id="svg" version="1.1" width="400" height="506.35838150289015" viewBox="0, 0, 400,506.35838150289015" xmlns="http://www.w3.org/2000/svg">
  <g id="svgg">
    <path id="path0" d="M 20.079 8.097 C 19.485 8.65 18.597 9.31 18.104 9.563 C 15.934 10.679 16.2 201.8 16.2 201.8 L 17.26 205.6 C 18.155 208.807 18.362 210.555 18.588 216.8 C 18.809 222.925 18.993 224.51 19.652 226 C 20.153 227.133 20.523 229.061 20.649 231.2 C 20.857 234.715 21.794 239.6 22.53 241 C 22.761 241.44 22.981 242.97 23.019 244.4 C 23.07 246.333 23.356 247.514 24.134 249.001 C 24.938 250.538 25.239 251.835 25.434 254.601 C 25.61 257.094 25.982 258.86 26.644 260.348 C 27.257 261.726 27.6 263.248 27.6 264.593 C 27.6 266.157 27.848 267.054 28.58 268.133 C 29.12 268.928 29.756 270.654 29.995 271.97 C 30.233 273.286 30.773 275.141 31.194 276.093 C 31.615 277.045 32.084 279.034 32.235 280.513 C 32.442 282.535 32.745 283.456 33.455 284.222 C 34.028 284.839 34.406 285.746 34.414 286.521 C 34.437 288.526 35.441 292.248 36.362 293.738 C 36.823 294.484 37.2 295.606 37.2 296.232 C 37.2 296.983 37.56 297.657 38.256 298.212 C 39.101 298.886 39.382 299.564 39.661 301.601 C 39.852 303.001 40.267 304.432 40.582 304.78 C 40.897 305.128 41.345 306.263 41.578 307.301 C 41.811 308.34 42.519 310.047 43.153 311.095 C 43.786 312.143 44.421 313.657 44.563 314.46 C 44.705 315.263 45.072 316.128 45.379 316.383 C 45.686 316.638 46.06 317.601 46.21 318.523 C 46.36 319.445 46.894 320.65 47.396 321.2 C 47.899 321.75 48.446 322.65 48.613 323.2 C 48.779 323.75 49.317 324.74 49.808 325.4 C 50.299 326.06 50.818 327.257 50.961 328.06 C 51.104 328.863 51.515 329.763 51.873 330.06 C 52.685 330.732 55.2 335.915 55.2 336.915 C 55.2 337.946 55.96 339.253 57.064 340.121 C 57.691 340.615 58 341.273 58 342.115 C 58 342.808 58.346 343.737 58.771 344.186 C 61.531 347.098 62.4 348.202 62.4 348.792 C 62.4 349.16 62.847 349.881 63.394 350.394 C 63.941 350.908 64.5 351.974 64.637 352.764 C 64.774 353.554 65.298 354.83 65.8 355.6 C 66.303 356.37 66.92 357.653 67.172 358.452 C 67.424 359.25 67.983 360.223 68.415 360.614 C 68.847 361.004 69.2 361.497 69.2 361.709 C 69.2 361.921 69.74 362.709 70.4 363.461 C 71.06 364.213 71.6 365.175 71.6 365.6 C 71.6 366.025 72.14 366.987 72.8 367.739 C 73.46 368.491 74 369.275 74 369.483 C 74 369.691 74.43 370.265 74.956 370.758 C 75.481 371.252 76.017 372.186 76.147 372.835 C 76.298 373.589 76.734 374.147 77.357 374.384 C 77.893 374.587 78.458 375.169 78.612 375.677 C 78.766 376.185 79.218 376.96 79.616 377.4 C 80.015 377.84 80.468 378.74 80.623 379.4 C 80.778 380.06 81.377 381.072 81.953 381.649 C 84.2 383.902 84.851 384.806 85.421 386.472 C 85.752 387.436 86.894 389.126 88.007 390.295 C 89.103 391.448 90 392.676 90 393.025 C 90 393.374 91.08 394.756 92.4 396.097 C 93.72 397.437 94.8 398.744 94.8 398.999 C 94.8 399.504 100.286 404.951 103.378 407.516 C 103.72 407.799 104 408.54 104 409.161 C 104 410.512 106.053 413.26 107.412 413.727 C 107.935 413.907 108.462 414.365 108.582 414.744 C 108.702 415.123 109.539 416.236 110.441 417.217 C 111.342 418.197 112.521 419.652 113.059 420.448 C 113.597 421.245 114.749 422.468 115.618 423.166 C 116.487 423.865 117.472 424.965 117.806 425.611 C 118.14 426.258 118.995 427.084 119.707 427.449 C 121.459 428.346 126.444 433.043 127.261 434.567 C 127.825 435.619 130.008 437.513 132.37 439 C 132.72 439.22 135.115 441.47 137.692 444 C 143.018 449.227 149.84 455.007 151.37 455.589 C 151.937 455.804 152.4 456.128 152.4 456.308 C 152.4 457.369 160.167 464.232 161.81 464.623 C 162.464 464.778 163.49 465.377 164.088 465.953 C 166.934 468.691 168.076 469.51 171.288 471.117 C 172.106 471.526 173.154 472.342 173.617 472.93 C 174.079 473.519 174.69 474 174.974 474 C 175.461 474 177.086 475.117 179.8 477.318 C 180.46 477.853 181.45 478.43 182 478.6 C 182.55 478.77 183.509 479.335 184.131 479.855 C 184.753 480.375 185.505 480.8 185.803 480.8 C 186.102 480.8 186.715 481.32 187.168 481.955 C 187.683 482.678 188.494 483.204 189.34 483.362 C 190.083 483.502 191.013 483.972 191.407 484.408 C 191.801 484.844 192.313 485.2 192.543 485.2 C 192.773 485.2 193.542 485.762 194.25 486.449 C 196.046 488.189 202.307 488.169 203.388 486.419 C 203.535 486.182 204.257 485.736 204.992 485.429 C 205.728 485.122 206.706 484.494 207.165 484.035 C 207.624 483.576 208.335 483.2 208.745 483.2 C 209.155 483.2 210.169 482.66 211 482 C 211.831 481.34 212.715 480.8 212.966 480.8 C 213.217 480.8 213.992 480.305 214.689 479.7 C 215.386 479.095 216.965 478.316 217.455 477.97 C 218.823 477.002 218.505 471.299 216.536 471.299 C 215.299 471.299 213.75 476.272 212.8 477.2 C 212.125 477.86 211.394 478.4 211.176 478.4 C 210.958 478.4 210.61 478.847 210.403 479.393 C 210.118 480.142 209.636 480.449 208.445 480.639 C 207.512 480.788 206.524 481.283 206.035 481.846 C 205.456 482.512 204.782 482.8 203.806 482.8 C 202.755 482.8 202.14 483.099 201.337 484 C 199.899 485.614 198.291 485.614 196.875 484 C 196.131 483.153 195.459 482.8 194.586 482.8 C 193.742 482.8 192.995 482.429 192.231 481.632 C 191.616 480.99 190.649 480.348 190.083 480.206 C 189.517 480.064 188.533 479.51 187.896 478.974 C 187.26 478.438 186.51 478 186.231 478 C 185.952 478 185.397 477.638 184.997 477.197 C 184.597 476.755 183.582 476.187 182.741 475.935 C 181.899 475.683 180.935 475.054 180.596 474.538 C 180.258 474.022 179.798 473.6 179.573 473.6 C 179.349 473.6 178.151 472.61 176.912 471.4 C 175.443 469.966 174.323 469.2 173.695 469.2 C 173.048 469.2 171.967 468.424 170.409 466.841 C 168.87 465.278 167.633 464.387 166.743 464.198 C 166.004 464.042 164.933 463.438 164.361 462.857 C 160.453 458.88 156.45 455.31 155.329 454.8 C 154.603 454.47 152.58 452.85 150.835 451.2 C 149.089 449.55 147.062 447.719 146.33 447.132 C 145.599 446.545 143.829 445.086 142.398 443.89 C 140.967 442.694 139.347 441.579 138.798 441.412 C 137.752 441.094 136.953 440.393 132.505 435.895 C 131.52 434.9 130.509 433.862 130.257 433.588 C 128.875 432.085 123.829 427.179 122.248 425.8 C 121.239 424.92 120.41 424.067 120.407 423.905 C 120.4 423.619 108.37 411.532 107.05 410.484 C 106.673 410.185 106.4 409.383 106.4 408.576 C 106.4 407.478 106.188 407.086 105.4 406.727 C 104.85 406.477 104.4 406.116 104.4 405.926 C 104.4 405.736 102.834 404.039 100.92 402.156 C 99.006 400.272 97.11 398.071 96.705 397.265 C 95.37 394.605 94.611 393.389 93.664 392.389 C 92.108 390.746 90.4 388.323 90.4 387.759 C 90.4 387.467 89.866 386.636 89.214 385.914 C 88.562 385.191 87.527 384.007 86.914 383.283 C 86.301 382.558 85.422 381.568 84.959 381.083 C 84.497 380.597 83.887 379.493 83.604 378.628 C 83.302 377.703 82.209 376.182 80.945 374.928 C 79.527 373.522 78.8 372.472 78.8 371.831 C 78.8 371.298 78.35 370.327 77.8 369.673 C 77.25 369.019 76.8 368.324 76.8 368.129 C 76.8 367.729 74.474 363.93 73.291 362.4 C 72.867 361.85 72.308 360.754 72.049 359.963 C 71.791 359.173 71.134 358.139 70.59 357.666 C 70.036 357.184 69.6 356.37 69.6 355.817 C 69.6 355.273 69.06 354.213 68.4 353.461 C 67.74 352.709 67.2 351.907 67.2 351.678 C 67.2 351.449 66.776 350.753 66.258 350.131 C 65.74 349.509 65.101 348.339 64.837 347.532 C 64.574 346.725 64.1 345.849 63.782 345.585 C 63.465 345.322 63.025 344.434 62.803 343.612 C 62.582 342.79 61.951 341.632 61.4 341.038 C 60.85 340.445 60.4 339.573 60.4 339.101 C 60.4 338.629 59.928 337.562 59.352 336.731 C 58.723 335.824 58.223 334.454 58.103 333.309 C 57.979 332.13 57.564 331.018 57.018 330.4 C 55.672 328.879 54.553 326.732 53.855 324.331 C 53.509 323.139 52.794 321.758 52.267 321.262 C 51.565 320.603 51.247 319.775 51.082 318.169 C 50.956 316.954 50.412 315.184 49.862 314.199 C 49.315 313.221 48.751 311.889 48.608 311.238 C 48.466 310.588 48.091 309.841 47.776 309.58 C 47.46 309.318 46.945 308.235 46.629 307.174 C 46.314 306.112 45.666 304.716 45.19 304.073 C 44.66 303.355 44.215 301.972 44.042 300.502 C 43.879 299.119 43.475 297.818 43.09 297.433 C 42.722 297.065 42.222 296.007 41.978 295.082 C 41.735 294.157 41.193 292.81 40.775 292.089 C 40.356 291.368 39.846 289.733 39.64 288.455 C 39.427 287.136 38.82 285.475 38.233 284.61 C 37.665 283.773 37.199 282.618 37.199 282.044 C 37.198 281.47 36.831 280.4 36.384 279.666 C 35.928 278.919 35.371 276.921 35.117 275.121 C 34.828 273.079 34.343 271.438 33.785 270.616 C 33.283 269.876 32.781 268.312 32.613 266.962 C 32.45 265.663 32.068 264.119 31.764 263.53 C 31.459 262.941 30.921 260.786 30.568 258.74 C 30.215 256.694 29.605 254.566 29.211 254.01 C 28.775 253.394 28.382 251.83 28.203 250 C 28.042 248.35 27.655 246.241 27.344 245.314 C 27.033 244.387 26.893 243.17 27.033 242.611 C 27.189 241.991 27.021 241.03 26.603 240.15 C 26.222 239.347 25.823 237.263 25.704 235.453 C 25.542 232.975 25.252 231.787 24.487 230.466 C 23.62 228.967 23.445 228.041 23.2 223.666 C 23.01 220.252 22.69 218.085 22.22 217.021 C 21.649 215.727 21.463 213.526 21.186 204.821 C 20.886 195.402 20.745 193.883 19.934 191.4 L 19.02 188.6 L 18.902 146 C 18.902 146 20.702 14.086 22.925 12.933 C 25.012 11.852 380.598 16.382 380.963 16.882 C 381.276 17.31 381.294 199 381.294 199 C 381.294 199 377.007 229.69 376.841 232 C 376.608 235.244 376.304 236.701 375.506 238.4 C 374.938 239.61 373.664 245.761 373.348 246.911 C 373.032 248.06 372.51 250.695 372.187 252.768 C 371.864 254.84 369.209 263.01 368.807 264 C 368.404 264.99 367.1 272.928 365.85 274.413 C 365.206 275.179 362.461 286.323 361.966 286.952 C 361.507 287.535 358.375 297.742 357.141 299.06 C 356.601 299.636 356.221 300.826 355.989 302.66 C 355.629 305.504 353.885 309.606 352.133 311.731 C 351.62 312.353 351.2 313.168 351.2 313.542 C 351.2 313.916 350.921 314.621 350.579 315.109 C 350.237 315.596 349.686 317.301 349.355 318.898 C 348.97 320.746 348.416 322.163 347.827 322.8 C 347.319 323.35 346.782 324.313 346.634 324.94 C 346.486 325.567 345.983 326.596 345.517 327.226 C 345.051 327.857 344.537 329.352 344.374 330.549 C 344.2 331.836 343.654 333.352 343.04 334.256 C 342.468 335.097 342 336.071 342 336.421 C 342 336.77 341.55 337.447 341 337.925 C 340.45 338.403 340 339.15 340 339.583 C 340 340.017 339.478 340.966 338.841 341.693 C 338.203 342.419 337.482 343.754 337.238 344.66 C 336.994 345.566 336.53 346.526 336.208 346.794 C 335.885 347.061 335.503 347.91 335.359 348.679 C 335.215 349.448 334.535 350.667 333.848 351.389 C 331.424 353.938 330.8 354.88 330.8 355.987 C 330.8 356.795 330.412 357.401 329.4 358.173 C 328.63 358.76 328 359.474 328 359.758 C 328 360.043 327.64 360.602 327.2 361 C 326.76 361.398 326.4 362.129 326.4 362.624 C 326.4 363.119 325.77 364.278 325 365.2 C 324.151 366.216 323.6 367.305 323.6 367.968 C 323.6 368.598 323.202 369.435 322.659 369.945 C 322.142 370.431 321.518 371.498 321.272 372.316 C 320.951 373.39 320.42 374.023 319.364 374.592 C 317.348 375.677 316.65 376.865 316.905 378.771 C 317.121 380.379 316.694 381.2 315.643 381.2 C 314.938 381.2 312.155 384.083 311.809 385.17 C 311.678 385.586 311.315 386.024 311.003 386.144 C 310.691 386.263 310.073 387.045 309.63 387.881 C 309.187 388.716 307.469 390.838 305.812 392.596 C 304.155 394.354 302.8 396.015 302.8 396.287 C 302.8 396.559 302.359 397.07 301.82 397.424 C 301.281 397.777 300.646 398.655 300.408 399.376 C 300.17 400.096 299.246 401.272 298.354 401.989 C 297.462 402.706 296.399 403.84 295.992 404.509 C 295.18 405.845 292.698 408.721 289 412.613 C 287.68 414.002 285.637 416.157 284.459 417.401 C 283.282 418.645 282.148 420.279 281.94 421.031 C 281.732 421.784 281.396 422.4 281.192 422.4 C 280.709 422.4 277.2 425.909 277.2 426.392 C 277.2 426.596 276.584 427.055 275.831 427.412 C 275.078 427.77 273.323 429.353 271.931 430.931 C 270.539 432.509 269.261 433.861 269.092 433.936 C 268.922 434.011 268.519 434.583 268.196 435.208 C 267.873 435.832 267.274 436.45 266.865 436.579 C 266.456 436.709 265.922 437.252 265.679 437.786 C 265.383 438.437 264.78 438.843 263.852 439.017 C 263.091 439.159 262.061 439.709 261.564 440.238 C 261.067 440.767 260.485 441.2 260.27 441.2 C 259.808 441.2 256.4 444.735 256.4 445.215 C 256.4 445.397 256.029 445.664 255.576 445.808 C 255.122 445.952 254.564 446.481 254.335 446.984 C 254.087 447.526 253.311 448.08 252.424 448.345 C 251.603 448.592 250.603 449.155 250.203 449.597 C 249.803 450.038 249.244 450.4 248.96 450.4 C 248.676 450.4 247.669 451.235 246.722 452.255 C 242.49 456.812 242.19 457.064 240.724 457.302 C 239.558 457.492 238.55 458.249 235.841 460.97 C 233.963 462.857 232.272 464.4 232.083 464.4 C 231.894 464.4 231.335 464.83 230.842 465.356 C 230.348 465.881 229.411 466.418 228.761 466.548 C 228.069 466.686 226.709 467.661 225.489 468.892 C 224.34 470.052 223.111 471.18 222.757 471.4 C 220.945 472.528 217.994 476.333 217.994 476.739 C 217.994 477.919 220.858 476.222 221.759 475.093 C 222.238 474.492 222.838 474 223.092 474 C 223.346 474 224.691 473.036 226.079 471.858 C 227.468 470.68 229.021 469.584 229.53 469.422 C 230.04 469.26 231.389 468.232 232.528 467.137 C 233.668 466.042 235.14 464.91 235.8 464.622 C 236.46 464.335 237.99 463.178 239.2 462.052 C 240.41 460.926 241.58 459.998 241.8 459.991 C 242.02 459.983 243.01 459.255 244 458.373 C 244.99 457.492 247.195 455.689 248.9 454.367 C 250.605 453.045 252 451.814 252 451.631 C 252 451.447 252.534 451.076 253.187 450.806 C 253.839 450.535 254.482 449.973 254.614 449.557 C 254.746 449.141 255.016 448.8 255.213 448.8 C 255.411 448.8 256.163 448.285 256.886 447.655 C 257.609 447.026 258.804 446.201 259.543 445.823 C 260.282 445.445 261.681 444.34 262.654 443.367 C 263.626 442.395 264.55 441.6 264.709 441.6 C 264.867 441.6 265.987 440.557 267.198 439.283 C 268.409 438.009 269.903 436.749 270.519 436.483 C 271.134 436.218 271.944 435.432 272.319 434.737 C 273.039 433.403 273.292 433.135 275.739 431.118 C 276.585 430.42 277.436 429.43 277.631 428.918 C 277.826 428.405 278.407 427.826 278.921 427.63 C 279.435 427.435 280.384 426.633 281.028 425.848 C 281.673 425.063 285.138 421.413 288.73 417.737 C 292.36 414.021 295.65 410.284 296.14 409.32 C 296.701 408.217 297.526 407.335 298.41 406.893 C 299.27 406.465 300.105 405.588 300.6 404.596 C 301.04 403.714 301.85 402.515 302.4 401.931 C 303.679 400.575 304.399 399.602 306.497 396.4 C 307.434 394.97 308.695 393.313 309.3 392.718 C 309.905 392.123 310.4 391.469 310.4 391.265 C 310.4 391.06 310.746 390.803 311.169 390.692 C 311.591 390.582 312.296 389.796 312.735 388.946 C 313.174 388.096 314.313 386.463 315.267 385.319 C 317.583 382.537 318.686 380.709 319.2 378.799 C 319.435 377.927 319.982 377.024 320.415 376.792 C 321.756 376.074 324 373.611 324 372.856 C 324 372.462 324.45 371.717 325 371.2 C 325.55 370.683 326 370.014 326 369.712 C 326 369.41 326.495 368.68 327.1 368.09 C 328.208 367.008 328.522 366.527 330.459 362.954 C 331.042 361.879 332.349 360.19 333.364 359.2 C 334.669 357.927 335.28 356.968 335.451 355.926 C 335.585 355.115 336.12 354.051 336.641 353.562 C 337.162 353.072 337.697 352.089 337.831 351.376 C 337.965 350.663 338.498 349.711 339.016 349.261 C 339.534 348.81 340.147 347.741 340.377 346.884 C 340.608 346.028 341.157 345.001 341.598 344.602 C 342.039 344.202 342.4 343.665 342.4 343.408 C 342.4 343.15 342.85 342.517 343.4 342 C 344.056 341.383 344.4 340.627 344.4 339.8 C 344.4 338.982 344.741 338.219 345.372 337.626 C 345.907 337.124 346.46 336.031 346.6 335.197 C 346.761 334.249 347.291 333.294 348.019 332.646 C 348.949 331.818 349.137 331.383 348.956 330.478 C 348.785 329.626 348.988 329.037 349.775 328.103 C 350.35 327.419 351.026 326.261 351.277 325.53 C 351.528 324.798 352.132 323.66 352.621 323 C 353.109 322.34 353.797 320.789 354.15 319.552 C 354.503 318.316 355.052 317.089 355.37 316.825 C 355.688 316.561 356.066 315.772 356.21 315.072 C 356.502 313.654 358.558 309.143 359.615 307.6 C 359.992 307.05 360.43 305.97 360.588 305.2 C 360.746 304.43 361.297 303.17 361.813 302.4 C 362.959 300.689 364.449 295.157 364.162 293.679 C 363.963 292.653 364.149 292.233 367.094 287.067 C 367.366 286.59 367.591 285.859 367.594 285.441 C 367.597 285.024 368.14 282.997 368.8 280.937 C 369.46 278.876 370 276.486 370 275.626 C 370 274.523 370.308 273.695 371.045 272.82 C 372.2 271.447 372.776 269.489 372.79 266.887 C 372.796 265.945 373.065 264.54 373.389 263.765 C 373.713 262.99 374.254 260.901 374.591 259.121 C 374.929 257.342 375.581 255.278 376.04 254.535 C 376.625 253.589 376.979 252.075 377.22 249.491 C 377.409 247.461 377.659 245.44 377.774 245 C 378.743 241.322 379.589 236.874 379.826 234.222 C 379.981 232.475 380.44 230.315 380.845 229.422 C 381.331 228.353 381.586 226.846 381.594 225 C 381.6 223.46 381.81 221.12 382.061 219.8 C 382.487 217.556 382.537 216.55 382.382 213.312 C 382.348 212.603 382.675 211.433 383.109 210.712 C 383.839 209.498 383.918 208.352 384.167 195.4 C 384.315 187.7 386.708 15.644 385.009 13.611 C 382.939 11.133 380.474 9.92 379.213 10.759 M 28.237 21.001 L 27 21.402 C 27 21.402 26.56 101.001 26.255 122.498 C 26.113 132.561 26.163 145.791 26.367 151.898 C 26.674 161.097 26.64 163.375 26.169 165.187 C 24.504 171.589 26.656 176.731 30.112 174.61 C 32.108 173.384 45.261 173.153 46.539 174.32 C 47.013 174.753 47.94 175.379 48.6 175.712 C 50.464 176.653 54.787 181.04 55.282 182.493 C 55.527 183.212 56.13 184.286 56.621 184.88 C 57.865 186.384 58.099 189.408 58.049 203.348 C 57.931 236.468 58.01 248.049 58.366 249.46 C 59.254 252.989 60.476 255.831 61.434 256.594 C 61.991 257.039 62.751 258.069 63.123 258.884 C 64.39 261.66 70.246 265.572 73.891 266.077 C 81.404 267.118 87.639 265.951 90.407 262.986 C 90.953 262.401 92.074 261.577 92.897 261.154 C 93.813 260.685 94.608 259.884 94.942 259.093 C 95.243 258.382 95.861 257.469 96.316 257.064 C 96.77 256.66 97.267 255.588 97.42 254.682 C 97.573 253.776 98.074 252.526 98.534 251.904 C 99.364 250.781 99.37 250.56 99.412 219.487 C 99.436 202.279 99.592 187.66 99.76 187 C 100.8 182.916 105.704 176.462 108.253 175.822 C 108.81 175.683 110.002 175.081 110.904 174.484 C 113.547 172.735 123.889 172.895 127.684 174.743 C 129.102 175.435 130.394 176 130.555 176 C 130.715 176 131.643 176.855 132.616 177.9 C 140.117 185.951 139.424 179.222 139.095 240.8 C 139.052 248.813 139.141 250.383 139.701 251.44 C 140.062 252.121 140.569 253.561 140.828 254.64 C 141.737 258.436 147.802 265.249 150.768 265.805 C 151.555 265.953 153.189 266.49 154.399 266.998 C 158.688 268.801 161.776 268.697 167.102 266.571 C 171.281 264.904 174.421 262.653 175.629 260.459 C 176.071 259.657 176.854 258.42 177.369 257.711 C 177.912 256.963 178.507 255.284 178.787 253.711 C 179.052 252.22 179.453 250.396 179.679 249.658 C 179.905 248.918 180.047 245.507 179.994 242.058 C 179.942 238.616 179.938 232.56 179.985 228.6 C 180.033 224.64 180.066 216.45 180.06 210.4 C 180.044 194.2 180.417 189.05 181.703 187.679 C 182.26 187.086 182.835 186.032 182.981 185.338 C 183.127 184.643 183.641 183.592 184.124 183.002 C 185.889 180.84 188.817 178 189.281 178 C 189.543 178 190.415 177.544 191.22 176.986 C 193.486 175.416 201.162 174.492 204.656 175.37 C 206.035 175.716 207.706 176 208.368 176 C 209.163 176 209.717 176.272 210 176.801 C 210.236 177.241 211.023 177.849 211.749 178.153 C 212.897 178.632 215.326 181.23 218.238 185.089 C 220.28 187.798 221.211 195.822 220.663 206 C 219.969 218.879 220.31 251.354 221.163 253.69 C 221.624 254.95 222 256.427 222 256.974 C 222 257.521 222.344 258.291 222.765 258.684 C 223.739 259.596 226.4 263.459 226.4 263.961 C 226.4 264.561 228.428 266 229.273 266 C 229.694 266 230.435 266.427 230.919 266.949 C 231.467 267.539 232.48 268.002 233.6 268.174 C 234.59 268.326 235.981 268.747 236.69 269.111 C 237.824 269.691 238.211 269.707 239.89 269.236 C 240.941 268.942 243.15 268.489 244.8 268.23 C 247.75 267.766 248.585 267.366 252.476 264.55 C 255.644 262.258 258.785 257.744 258.798 255.467 C 258.799 255.283 259.34 253.785 260 252.136 C 261.49 248.414 261.597 245.483 260.335 242.956 C 259.473 241.229 259.472 241.213 260.187 237.809 C 260.66 235.552 260.812 233.75 260.633 232.497 C 259.982 227.933 259.924 226.182 260.334 223.478 C 260.944 219.456 261.017 212.519 260.496 207.879 C 260.147 204.765 260.167 203.532 260.591 201.895 C 261.055 200.107 261.043 199.624 260.503 198.275 C 259.938 196.861 259.939 196.527 260.515 194.659 C 260.864 193.526 261.339 191.543 261.57 190.25 C 262.229 186.572 268.192 178.4 270.217 178.4 C 270.476 178.4 271.699 177.86 272.936 177.2 C 275.922 175.607 285.569 175.354 287.621 176.815 C 288.251 177.263 289.386 177.848 290.144 178.115 C 291.684 178.657 295.023 181.633 296.106 183.429 C 296.495 184.073 297.619 185.77 298.604 187.2 C 300.712 190.258 300.519 187.42 300.462 214.555 C 300.437 226.397 300.279 232.555 299.975 233.475 C 299.645 234.476 299.642 235.51 299.962 237.353 C 300.203 238.735 300.4 242.944 300.4 246.707 C 300.4 253.633 300.638 255.124 301.981 256.6 C 302.381 257.04 302.837 257.85 302.994 258.4 C 303.377 259.739 305.093 262.322 306.586 263.807 C 307.254 264.471 308.462 265.776 309.271 266.707 C 310.408 268.016 311.022 268.4 311.979 268.4 C 312.66 268.4 313.948 268.884 314.842 269.475 C 317.018 270.915 323.936 271.203 326.099 269.943 C 326.815 269.526 328.03 268.915 328.8 268.585 C 332.521 266.991 334.019 265.971 336.703 263.2 C 338.785 261.051 339.725 259.746 340.019 258.6 C 340.244 257.72 340.718 256.207 341.071 255.237 C 341.723 253.451 342.145 249.212 342.071 245.2 C 341.388 208.13 341.762 194.327 343.572 189.807 C 344.247 188.12 344.801 186.528 344.802 186.27 C 344.804 185.658 349.395 180.794 351.2 179.491 C 354.547 177.074 366.943 176.963 370.446 179.318 C 371.713 180.17 373.274 179.738 374.061 178.319 C 374.469 177.584 374.579 162.035 374.612 100.661 L 373.666 23.276 M 81.454 47.798 C 81.573 48.108 82.293 48.567 83.054 48.818 C 83.928 49.106 84.817 49.847 85.467 50.83 C 86.063 51.73 87.146 52.671 88.04 53.066 C 89.081 53.525 90.076 54.473 91.092 55.974 C 93.034 58.841 92.957 56.265 92.578 105.972 L 92.388 130.944 L 93.348 131.972 C 93.876 132.537 94.595 133.568 94.945 134.261 C 95.294 134.955 96.217 135.916 96.995 136.397 C 99.965 138.232 99.886 139.35 96.54 142.804 C 92.485 146.99 90.433 147.007 86.31 142.888 C 85.05 141.63 83.412 140.016 82.669 139.303 C 80.962 137.663 80.879 136.512 81.059 117 C 81.238 97.738 82.377 99.332 68.368 99.245 C 56.497 99.172 57.641 98.2 57.574 108.418 C 57.543 113.301 57.315 117.243 56.962 119 C 56.653 120.54 56.399 122.79 56.397 124 C 56.395 125.21 56.213 127.314 55.992 128.677 C 55.771 130.039 55.423 133.279 55.219 135.877 C 55.014 138.474 54.559 141.59 54.206 142.8 C 53.853 144.01 53.41 146.862 53.22 149.139 C 52.916 152.798 52.756 153.403 51.838 154.361 C 51.125 155.105 50.8 155.882 50.8 156.844 C 50.8 157.71 50.418 158.762 49.8 159.6 C 49.25 160.345 48.8 161.266 48.8 161.646 C 48.8 162.547 44.575 167.491 43.517 167.826 C 41.724 168.395 41.383 164.733 43.011 162.385 C 43.58 161.563 44.185 159.919 44.397 158.617 C 44.604 157.347 45.12 155.564 45.545 154.654 C 46.186 153.281 46.356 151.744 46.548 145.6 C 46.693 140.964 47.017 137.229 47.415 135.6 C 48.223 132.29 48.224 122.667 47.417 116.8 C 47.099 114.49 46.636 109.27 46.389 105.2 C 45.739 94.516 45.407 91.104 44.931 90.2 C 43.841 88.131 44.036 78.4 45.167 78.4 C 45.437 78.4 49.061 75.203 51.119 73.149 C 51.624 72.645 52.546 72.018 53.167 71.757 C 53.788 71.496 54.904 70.526 55.646 69.603 C 56.388 68.679 57.385 67.715 57.861 67.461 C 58.337 67.208 60.768 65.085 63.263 62.744 C 65.758 60.404 68.207 58.154 68.705 57.744 C 70.638 56.154 69.803 52.224 67.437 51.781 C 65.641 51.444 64.879 51.978 59.315 57.476 C 55.768 60.98 54.453 62.029 53.346 62.236 C 51.659 62.553 48.021 62.181 47.477 61.637 C 47.024 61.184 49.259 58.172 50.316 57.809 C 50.692 57.68 51.63 56.757 52.4 55.759 C 53.17 54.76 54.268 53.695 54.841 53.392 C 55.792 52.888 58.103 50.552 58.454 49.739 C 58.534 49.552 58.984 49.13 59.453 48.8 C 61.744 47.19 66.401 43.225 68.074 41.462 C 70.61 38.788 71.665 38.94 75.226 42.497 M 71.8 61.915 C 70.26 63.208 66.432 66.771 63.293 69.833 L 57.586 75.4 L 57.599 83.4 C 57.616 93.754 57.067 93.158 66.763 93.355 C 70.193 93.425 74.015 93.713 75.256 93.995 C 77.494 94.504 79.462 93.758 80.836 91.882 C 81.014 91.64 80.982 75.869 80.789 68.2 C 80.778 67.76 80.813 66.5 80.867 65.4 C 80.959 63.545 80.846 63.275 79.313 61.666 C 76.682 58.906 75.329 58.951 71.8 61.915 M 216.786 68.374 C 217.035 68.839 217.2 72.627 217.2 77.885 C 217.2 88.403 217.246 88.543 220.569 88.152 C 223.388 87.821 225.422 88.497 225.892 89.92 C 226.657 92.24 225.317 93.313 221.574 93.374 C 217.254 93.445 216.322 94.832 216.854 100.405 C 217.054 102.492 217.132 109.6 217.028 116.2 C 216.841 128.046 217.059 131.231 218.079 131.548 C 218.365 131.637 219.648 132.766 220.929 134.056 C 223.516 136.659 224.452 136.812 226.355 134.94 C 229.789 131.559 232.585 135.967 229.21 139.442 C 221.368 147.517 218.948 148.856 217.167 146.107 C 216.635 145.287 215.585 144.252 214.833 143.807 C 213.645 143.105 212.104 141.695 209.868 139.262 C 209.534 138.898 208.553 137.933 207.689 137.118 L 206.118 135.635 L 205.803 130.118 C 205.629 127.083 205.493 124.33 205.499 124 C 205.844 107.248 205.954 95.685 205.774 95.117 C 205.472 94.166 202.773 92.8 201.196 92.8 C 199.939 92.8 197.599 91.817 197.601 91.29 C 197.607 90.275 199.322 88.422 200.667 87.978 C 205.272 86.458 207.844 84.82 208.205 83.178 C 208.346 82.536 208.973 81.647 209.598 81.201 C 210.43 80.609 210.852 79.847 211.17 78.365 C 211.409 77.25 211.795 75.983 212.028 75.547 C 212.261 75.112 212.627 73.641 212.841 72.278 C 213.384 68.822 213.553 68.396 214.535 67.999 C 215.875 67.459 216.338 67.536 216.786 68.374 M 150.212 71.074 C 150.598 71.664 151.612 72.851 152.464 73.712 C 155.336 76.613 155.781 79.506 153.541 80.719 C 152.849 81.093 151.403 82.165 150.328 83.1 C 147.885 85.225 147.008 85.238 144.989 83.18 C 144.115 82.288 143.005 81.163 142.523 80.68 C 140.179 78.33 140.255 76 142.753 73.643 C 147.006 69.63 148.849 68.995 150.212 71.074 M 183.772 87.7 C 184.577 88.635 185.425 89.58 185.655 89.8 C 189.471 93.448 191.957 96.262 192.121 97.121 C 192.419 98.68 191.365 100.953 190.09 101.498 C 189.491 101.755 188.513 102.362 187.917 102.848 C 185.989 104.42 184.171 104.002 181.657 101.41 C 179.716 99.408 179.354 99.2 177.802 99.2 C 173.725 99.2 173.704 101.817 177.748 105.767 C 178.893 106.885 180.648 108.79 181.649 110 C 184.318 113.228 186.671 115.837 189.6 118.82 C 199.576 128.976 199.69 129.216 195.936 132.225 C 194.581 133.311 191.13 136.516 188.267 139.347 C 185.405 142.179 182.561 144.8 181.947 145.174 C 181.334 145.547 180.451 146.335 179.987 146.926 C 178.65 148.625 177.118 148.388 175.081 146.168 C 174.156 145.16 171.825 142.739 169.9 140.787 C 165.434 136.258 165.183 134.041 168.924 132.151 C 169.626 131.796 170.685 130.988 171.277 130.353 C 173.237 128.256 175.705 129.595 179.817 134.987 C 181.204 136.805 182.02 136.767 184.172 134.783 C 186.553 132.589 186.242 131.274 182.471 127.59 C 181.002 126.154 178.63 123.647 177.2 122.018 C 175.77 120.389 174.037 118.504 173.35 117.828 C 172.122 116.622 167.472 111.231 165.698 108.956 C 165.202 108.32 164.334 107.218 163.769 106.507 C 162.272 104.625 164.306 100.964 167.61 99.596 C 168.265 99.325 168.8 98.922 168.8 98.7 C 168.8 98.365 175.825 91.248 177.645 89.74 C 177.95 89.487 178.83 88.558 179.6 87.676 C 181.394 85.621 181.983 85.624 183.772 87.7 M 113.674 88.367 C 114.183 88.57 115.495 89.605 116.59 90.667 C 119.435 93.431 120.939 93.398 124.285 90.5 C 126.884 88.248 128.363 87.845 129.277 89.14 C 129.565 89.548 130.34 90.163 131 90.508 C 132.569 91.327 136 95.001 136 95.861 C 136 98.566 128.147 104.623 126.778 102.974 C 125.442 101.363 121.795 100.601 120.854 101.735 C 120.562 102.087 120.411 104.87 120.415 109.835 C 120.418 113.996 120.335 120.19 120.231 123.6 C 119.951 132.797 119.911 132.648 123.643 136.31 C 128.155 140.736 127.391 142.898 119.751 147.324 C 119.299 147.586 118.61 147.05 114.2 143.01 C 112.88 141.801 111.109 140.181 110.264 139.41 L 108.728 138.008 L 108.901 124.104 C 108.996 116.457 108.967 107.77 108.837 104.8 L 108.6 99.4 L 106.7 97.084 C 104.589 94.512 104.431 93.872 105.601 92.642 C 106.042 92.179 107.144 90.945 108.052 89.9 C 109.798 87.89 111.382 87.458 113.674 88.367 M 151.884 90.7 C 155.349 94.284 155.265 93.911 155.157 105.394 C 155.105 110.897 155.067 116.93 155.073 118.8 C 155.079 120.67 155.065 124.462 155.042 127.228 L 155 132.255 L 156.391 134.273 C 157.157 135.382 158.237 136.552 158.791 136.873 C 161.531 138.455 161.206 140.535 157.692 143.9 C 155.965 145.553 155.258 145.8 152.8 145.612 C 150.657 145.447 143.623 138.876 143.562 136.981 C 143.54 136.332 143.495 127.397 143.462 117.127 L 143.4 98.453 L 142.3 97.305 C 140.691 95.625 140.769 93.525 142.5 91.944 C 147.941 86.975 148.244 86.935 151.884 90.7 M 252.337 89.2 C 253.028 89.86 253.997 90.4 254.492 90.4 C 254.987 90.4 255.843 90.845 256.396 91.389 C 261.727 96.637 264.663 99.316 265.635 99.818 C 268.434 101.266 268.233 98.513 268.006 132.219 C 268.001 132.894 263.281 138.062 259.804 141.2 C 259.438 141.53 258.323 142.61 257.325 143.6 C 256.328 144.59 255.009 145.895 254.395 146.5 C 252.925 147.949 250.936 147.989 249.438 146.6 C 248.844 146.05 248.006 145.6 247.574 145.6 C 247.143 145.6 245.728 144.565 244.431 143.3 C 243.134 142.035 240.227 139.209 237.972 137.019 C 233.685 132.857 232.244 129.912 233.246 127.36 C 233.41 126.942 233.566 122.19 233.592 116.8 C 233.657 103.873 233.892 101.782 235.427 100.519 C 236.072 99.988 237.738 98.529 239.128 97.277 C 240.518 96.025 241.866 94.926 242.124 94.835 C 242.381 94.744 243.634 93.802 244.907 92.743 C 246.18 91.683 247.622 90.605 248.111 90.347 C 248.6 90.089 249.396 89.456 249.881 88.939 C 250.972 87.776 250.832 87.762 252.337 89.2 M 339.777 89.179 C 340.233 89.607 341.28 90.192 342.105 90.479 C 342.929 90.765 344.548 91.846 345.702 92.881 C 349.585 96.362 353.192 99.217 354.184 99.594 C 355.07 99.931 356.518 101.729 357.896 104.201 C 358.274 104.88 358.294 105.865 357.981 108.361 C 357.711 110.517 357.705 112.115 357.963 113.05 C 358.178 113.83 358.213 114.858 358.04 115.334 C 357.867 115.81 357.793 118.27 357.875 120.8 C 358.043 125.993 358.043 125.814 357.873 128.8 C 357.804 130.01 357.519 131.422 357.24 131.937 C 356.297 133.678 358.678 137.489 361.679 139.041 C 363.763 140.118 363.291 141.999 360.175 145.039 C 356.658 148.471 356.166 148.37 350.743 143.1 C 347.606 140.053 347.126 140.192 341.081 145.902 C 338.228 148.597 337.533 148.56 333.855 145.51 C 332.455 144.349 330.206 142.528 328.855 141.462 C 327.505 140.395 326.374 139.225 326.341 138.862 C 326.309 138.498 326.327 132.266 326.382 125.014 C 326.492 110.418 326.43 110.764 329.266 109.042 C 329.852 108.686 331.164 107.586 332.181 106.598 C 333.335 105.476 334.393 104.8 334.995 104.8 C 336.057 104.8 339.539 106.977 339.875 107.85 C 340.234 108.788 343.557 110.051 344.433 109.583 C 346.414 108.522 345.163 104.314 342.709 103.786 C 341.984 103.629 340.302 102.544 338.939 101.352 C 335.824 98.629 333.562 98.364 330.976 100.419 C 328.626 102.286 326.645 102.013 326.482 99.8 C 326.368 98.245 326.475 98.096 330.282 94.511 C 336.437 88.716 338.219 87.715 339.777 89.179 M 284.716 91.58 C 285.395 92.228 286.139 93.111 286.369 93.542 C 288.241 97.039 292.166 96.743 296.787 92.756 C 301.251 88.904 303.087 89.278 308.884 95.221 C 310.16 96.53 311.366 97.6 311.565 97.6 C 312.844 97.6 313.073 100.909 312.783 115.2 C 312.434 132.436 312.886 136.4 315.204 136.4 C 317.74 136.4 319.511 140.881 317.859 143.12 C 314.316 147.922 311.922 148.58 308.985 145.558 C 307.893 144.435 306.235 143.182 305.3 142.773 C 304.365 142.363 303.6 141.784 303.6 141.486 C 303.6 141.188 302.97 140.208 302.2 139.308 L 300.8 137.672 L 300.876 120.736 C 300.96 101.972 301.005 102.394 298.829 101.413 C 296.808 100.502 294.933 101.067 292.754 103.246 L 291.2 104.8 L 291.2 120.055 L 291.2 135.31 L 294.6 138.491 C 298.674 142.302 298.626 141.884 295.34 145.043 C 292.296 147.97 290.528 148.424 288.889 146.7 C 288.418 146.205 287.211 145.17 286.206 144.4 C 285.201 143.63 283.775 142.505 283.037 141.9 C 282.298 141.295 281.515 140.8 281.296 140.8 C 279.963 140.8 279.891 139.763 279.938 121.402 L 279.985 103.217 L 278.892 101.979 C 278.292 101.298 277.288 100.216 276.663 99.575 C 272.478 95.286 280.382 87.438 284.716 91.58 M 245.202 99.598 C 244.586 100.214 244.401 100.751 244.572 101.432 C 244.705 101.961 244.828 107.632 244.846 114.035 C 244.884 128.028 245.586 130.607 249.731 131.978 C 250.429 132.209 251.775 133.298 252.722 134.399 C 256.698 139.019 257.01 137.994 256.897 120.679 C 256.799 105.603 256.819 105.74 254.483 104.23 C 253.667 103.703 252.013 102.355 250.807 101.236 C 249.6 100.116 248.43 99.198 248.207 99.195 C 247.983 99.192 247.412 99.085 246.937 98.958 C 246.359 98.803 245.786 99.014 245.202 99.598 M 337.638 114.1 C 337.355 114.846 336.955 131.19 337.144 134.346 C 337.215 135.548 340.284 138.4 341.506 138.4 C 344.87 138.4 346.051 134.88 345.734 125.8 C 345.491 118.856 345.235 117.902 343.195 116.338 C 342.522 115.822 341.368 114.905 340.632 114.3 C 339.008 112.965 338.093 112.904 337.638 114.1 M 0 194.685 L 0 212.8 L 5.026 212.8 C 12.427 212.8 11.713 214.458 11.373 198.07 C 11.215 190.441 11.125 182.728 11.173 180.929 C 11.29 176.556 11.086 176.417 4.7 176.505 L 0 176.57 L 0 194.685 M 391.506 178.105 C 390.995 178.503 390.826 179.811 390.637 184.8 C 390.476 189.023 390.155 191.915 389.628 193.868 C 389.193 195.481 388.647 199.594 388.379 203.268 C 388.117 206.861 387.683 210.16 387.414 210.6 C 385.188 214.252 386.198 214.973 393.767 215.128 L 400 215.256 L 400 178.449 L 398.3 178.243 C 393.465 177.657 392.115 177.629 391.506 178.105 M 177.6 200 C 177.6 200.22 177.33 200.4 177 200.4 C 176.67 200.4 176.4 200.22 176.4 200 C 176.4 199.78 176.67 199.6 177 199.6 C 177.33 199.6 177.6 199.78 177.6 200" stroke="none" fill-rule="evenodd" style="fill: rgb(255, 106, 0);"/>
  </g>
</svg>